<mxfile host="Electron" modified="2024-08-17T20:06:49.096Z" agent="Mozilla/5.0 (Windows NT 10.0; Win64; x64) AppleWebKit/537.36 (KHTML, like Gecko) draw.io/24.6.4 Chrome/124.0.6367.207 Electron/30.0.6 Safari/537.36" etag="Zav7D_fu8QYq2uLh0TCh" version="24.6.4" type="device">
  <diagram name="Seite-1" id="s9lTPDWFy7EW-QpxYW6v">
    <mxGraphModel dx="691" dy="399" grid="1" gridSize="10" guides="1" tooltips="1" connect="1" arrows="1" fold="1" page="1" pageScale="1" pageWidth="827" pageHeight="1169" math="0" shadow="0">
      <root>
        <mxCell id="0" />
        <mxCell id="1" parent="0" />
        <mxCell id="CT22fqyOs4Gx5Ix-kcSD-1" value="Shadow Api" style="rounded=0;whiteSpace=wrap;html=1;fontFamily=Jetbrains Mono;labelBackgroundColor=none;fontSize=14;" parent="1" vertex="1">
          <mxGeometry x="200" y="150" width="260" height="30" as="geometry" />
        </mxCell>
        <mxCell id="CT22fqyOs4Gx5Ix-kcSD-3" value="Annotation&lt;br style=&quot;font-size: 14px;&quot;&gt;Processing" style="rounded=0;whiteSpace=wrap;html=1;fontFamily=Jetbrains Mono;labelBackgroundColor=none;fontSize=14;" parent="1" vertex="1">
          <mxGeometry x="200" y="200" width="120" height="40" as="geometry" />
        </mxCell>
        <mxCell id="CT22fqyOs4Gx5Ix-kcSD-4" value="Reflection" style="rounded=0;whiteSpace=wrap;html=1;fontFamily=Jetbrains Mono;labelBackgroundColor=none;fontSize=14;" parent="1" vertex="1">
          <mxGeometry x="340" y="200" width="120" height="40" as="geometry" />
        </mxCell>
        <mxCell id="CT22fqyOs4Gx5Ix-kcSD-5" value="&lt;font style=&quot;font-size: 14px;&quot;&gt;Rendering&lt;/font&gt;" style="rounded=0;whiteSpace=wrap;html=1;fontFamily=Jetbrains Mono;labelBackgroundColor=none;fontSize=14;" parent="1" vertex="1">
          <mxGeometry x="289.5" y="100" width="79" height="30" as="geometry" />
        </mxCell>
        <mxCell id="CT22fqyOs4Gx5Ix-kcSD-6" value="&lt;div style=&quot;font-size: 14px;&quot;&gt;&lt;font style=&quot;font-size: 14px;&quot;&gt;Validation&lt;/font&gt;&lt;/div&gt;" style="rounded=0;whiteSpace=wrap;html=1;fontFamily=Jetbrains Mono;labelBackgroundColor=none;fontSize=14;" parent="1" vertex="1">
          <mxGeometry x="200" y="100" width="79" height="30" as="geometry" />
        </mxCell>
        <mxCell id="3MAdqSYz7Hxe6o4PtFNW-1" value="&lt;font style=&quot;font-size: 14px;&quot; face=&quot;Jetbrains Mono&quot;&gt;Metaprogramming Implementations&lt;/font&gt;" style="text;html=1;align=left;verticalAlign=middle;whiteSpace=wrap;rounded=0;fontSize=14;" parent="1" vertex="1">
          <mxGeometry x="510" y="205" width="120" height="30" as="geometry" />
        </mxCell>
        <mxCell id="3MAdqSYz7Hxe6o4PtFNW-2" value="&lt;font style=&quot;font-size: 14px;&quot; face=&quot;Jetbrains Mono&quot;&gt;Abstraction&lt;/font&gt;" style="text;html=1;align=left;verticalAlign=middle;whiteSpace=wrap;rounded=0;fontSize=14;" parent="1" vertex="1">
          <mxGeometry x="510" y="150" width="60" height="30" as="geometry" />
        </mxCell>
        <mxCell id="3MAdqSYz7Hxe6o4PtFNW-3" value="&lt;font style=&quot;font-size: 14px;&quot; face=&quot;Jetbrains Mono&quot;&gt;Features&lt;/font&gt;" style="text;html=1;align=left;verticalAlign=middle;whiteSpace=wrap;rounded=0;fontSize=14;" parent="1" vertex="1">
          <mxGeometry x="510" y="100" width="50" height="30" as="geometry" />
        </mxCell>
      </root>
    </mxGraphModel>
  </diagram>
</mxfile>
